# Blender v2.79 (sub 0) OBJ File: ''
# www.blender.org
mtllib glassa.mtl
o glass_Mesh.001
v 0.250000 -0.124999 0.002973
v 0.125000 -0.249999 0.002973
v 0.125000 -0.124999 0.002973
v -0.250000 0.125002 0.002973
v -0.125000 0.250002 0.002973
v -0.125000 0.125002 0.002973
v -0.250000 0.124999 -0.002666
v -0.125000 0.124999 -0.002666
v -0.125000 0.249999 -0.002666
v 0.250000 -0.000002 -0.002666
v 0.125000 -0.000002 -0.002666
v 0.125000 -0.125002 -0.002666
v -0.375000 -0.125001 -0.002666
v -0.375000 -0.250001 -0.002666
v -0.250000 -0.125001 -0.002666
v 0.375000 -0.000002 -0.002666
v 0.375000 0.124998 -0.002666
v -0.125000 -0.249998 0.002973
v -0.125000 -0.374998 0.002973
v -0.250000 -0.374998 0.002973
v 0.125000 0.250001 0.002973
v 0.125000 0.375001 0.002973
v 0.250000 0.375001 0.002973
v 0.124999 0.374998 -0.002666
v 0.124999 0.249998 -0.002666
v 0.249999 0.374998 -0.002666
v -0.375000 0.374999 -0.002666
v -0.375000 0.249999 -0.002666
v -0.250000 0.374999 -0.002666
v -0.125000 -0.250001 -0.002666
v -0.125000 -0.125001 -0.002666
v -0.250000 -0.250001 -0.002666
v 0.375000 -0.250002 -0.002666
v 0.375000 -0.125002 -0.002666
v 0.250000 -0.250002 -0.002666
v 0.375000 0.250001 0.002973
v 0.375000 0.125001 0.002973
v 0.250000 0.125001 0.002973
v 0.375000 -0.249999 0.002973
v 0.375000 -0.374999 0.002973
v 0.250000 -0.374999 0.002973
v -0.375000 -0.249998 0.002973
v -0.375000 -0.124998 0.002973
v -0.250000 -0.124998 0.002973
v -0.375000 0.250002 0.002973
v -0.375000 0.375002 0.002973
v -0.250000 0.375002 0.002973
v 0.499999 0.249998 -0.002666
v 0.374999 0.249998 -0.002666
v -0.125000 -0.000001 -0.002666
v -0.000000 0.124998 -0.002666
v -0.125000 -0.375001 -0.002666
v 0.000000 -0.250002 -0.002666
v -0.500000 -0.375001 -0.002666
v -0.375000 -0.375001 -0.002666
v -0.000000 0.374999 -0.002666
v 0.124999 0.499998 -0.002666
v -0.500000 0.124999 -0.002666
v -0.375000 0.124999 -0.002666
v 0.125000 -0.250002 -0.002666
v 0.375000 -0.375002 -0.002666
v 0.500000 -0.250002 -0.002666
v 0.375000 0.375001 0.002973
v 0.375000 0.500001 0.002973
v 0.125000 0.000001 0.002973
v 0.000000 -0.124999 0.002973
v -0.125000 0.000002 0.002973
v 0.000000 0.125001 0.002973
v -0.375000 -0.374998 0.002973
v -0.375000 -0.499998 0.002973
v 0.500000 0.125001 0.002973
v 0.375000 0.000001 0.002973
v 0.125000 -0.374999 0.002973
v 0.125000 -0.499999 0.002973
v -0.500000 -0.124998 0.002973
v -0.375000 0.000002 0.002973
v -0.125000 0.375002 0.002973
v -0.125000 0.500002 0.002973
v 0.500000 -0.000002 -0.002666
v 0.374999 0.499998 -0.002666
v 0.374999 0.374998 -0.002666
v -0.375000 -0.500001 -0.002666
v -0.250000 -0.375001 -0.002666
v 0.125000 0.124998 -0.002666
v -0.000000 -0.000002 -0.002666
v -0.125000 -0.500001 -0.002666
v 0.000000 -0.375001 -0.002666
v -0.375000 -0.000001 -0.002666
v -0.500000 -0.125001 -0.002666
v -0.125000 0.499999 -0.002666
v -0.125000 0.374999 -0.002666
v -0.375000 0.499999 -0.002666
v -0.500000 0.374999 -0.002666
v 0.125000 -0.500002 -0.002666
v 0.250000 -0.375002 -0.002666
v 0.125000 -0.375002 -0.002666
v 0.375000 -0.500002 -0.002666
v 0.500000 -0.375002 -0.002666
v 0.249999 0.249998 -0.002666
v -0.000000 0.375001 0.002973
v 0.125000 0.125001 0.002973
v 0.125000 0.500001 0.002973
v 0.500000 0.375001 0.002973
v -0.500000 -0.374998 0.002973
v 0.000000 -0.374999 0.002973
v -0.125000 -0.124998 0.002973
v -0.125000 -0.499998 0.002973
v 0.375000 -0.124999 0.002973
v 0.500000 -0.124999 0.002973
v 0.500000 -0.374999 0.002973
v 0.375000 -0.499999 0.002973
v -0.375000 0.125002 0.002973
v -0.500000 0.125002 0.002973
v -0.500000 0.375002 0.002973
v -0.375000 0.500002 0.002973
v 0.499999 0.374998 -0.002666
v 0.499999 0.499998 -0.002666
v -0.500000 -0.500001 -0.002666
v 0.000000 -0.500001 -0.002666
v -0.000000 -0.125002 -0.002666
v -0.250000 -0.500001 -0.002666
v -0.500000 -0.000001 -0.002666
v -0.250000 0.249999 -0.002666
v -0.250000 -0.000001 -0.002666
v -0.500000 -0.250001 -0.002666
v -0.000001 0.499999 -0.002666
v -0.250000 0.499999 -0.002666
v -0.500000 0.249999 -0.002666
v 0.250000 0.124998 -0.002666
v -0.000000 0.249998 -0.002666
v 0.249999 0.499998 -0.002666
v 0.250000 -0.125002 -0.002666
v 0.500000 -0.125002 -0.002666
v 0.250000 -0.500002 -0.002666
v 0.500000 0.124998 -0.002666
v -0.000000 0.500001 0.002973
v -0.250000 0.250002 0.002973
v 0.000000 0.000001 0.002973
v 0.250000 0.250001 0.002973
v 0.500000 0.500001 0.002973
v -0.000000 0.250001 0.002973
v 0.250000 0.500001 0.002973
v -0.500000 -0.499998 0.002973
v -0.250000 -0.249998 0.002973
v 0.000000 -0.499999 0.002973
v 0.250000 -0.249999 0.002973
v 0.000000 -0.249999 0.002973
v -0.250000 -0.499998 0.002973
v 0.500000 0.000001 0.002973
v 0.500000 -0.249999 0.002973
v 0.250000 -0.499999 0.002973
v 0.250000 0.000001 0.002973
v 0.500000 0.250001 0.002973
v -0.500000 0.000002 0.002973
v -0.500000 0.250002 0.002973
v -0.250000 0.500002 0.002973
v -0.250000 0.000002 0.002973
v -0.500000 -0.249998 0.002973
v -0.500000 0.499999 -0.002666
v 0.500000 -0.500002 -0.002666
v 0.500000 -0.499999 0.002973
v -0.500001 0.500002 0.002973
vt 0.664836 0.170333
vt 0.829671 0.335167
vt 0.664836 0.335168
vt 0.829671 0.170333
vt 0.664836 0.005499
vt 0.829671 0.005499
vt 0.664836 -0.159335
vt 0.829671 -0.159336
vt 0.994506 0.005499
vt 0.994506 -0.159336
vt 1.159341 0.005499
vt 1.159341 -0.159336
vt 0.500001 0.170333
vt 0.500001 0.005499
vt 0.500001 -0.159335
vt 0.500001 0.335168
vt 0.664836 0.500002
vt 0.829671 0.500002
vt 0.994506 0.500002
vt 0.994506 0.335167
vt 0.994506 0.170333
vt 1.159341 0.170333
vt 0.335166 0.170334
vt 0.335166 0.005499
vt 0.335166 -0.159335
vt 0.335166 0.335168
vt 0.500001 0.500002
vt 0.664835 0.664836
vt 0.829670 0.664836
vt 0.994505 0.664836
vt 1.159341 0.664836
vt 1.159341 0.500001
vt 1.159341 0.335167
vt 0.170331 0.170334
vt 0.170330 0.335168
vt 0.335165 0.500002
vt 0.500000 0.664836
vt 0.664835 0.829671
vt 0.829670 0.829670
vt 0.994505 0.829670
vt 1.159340 0.829670
vt 0.170331 0.005499
vt 0.170331 -0.159335
vt 0.005496 0.005499
vt 0.005496 0.170334
vt 0.005495 0.335168
vt 0.170330 0.500002
vt 0.335165 0.664836
vt 0.500000 0.829671
vt 0.664835 0.994505
vt 0.829670 0.994505
vt 0.994505 0.994505
vt 1.159340 0.994504
vt 0.005496 -0.159335
vt -0.159339 -0.159335
vt -0.159339 0.005499
vt -0.159339 0.170334
vt -0.159340 0.335168
vt 0.005495 0.500002
vt -0.159340 0.500002
vt 0.005495 0.664837
vt -0.159340 0.664837
vt 0.005495 0.829671
vt -0.159340 0.829671
vt 0.005495 0.994505
vt -0.159340 0.994505
vt 0.005495 1.159340
vt -0.159340 1.159340
vt 0.170330 0.664837
vt 0.335165 0.829671
vt 0.500000 0.994505
vt 0.664835 1.159339
vt 0.829670 1.159339
vt 0.994505 1.159339
vt 1.159340 1.159339
vt 0.170330 0.829671
vt 0.335165 0.994505
vt 0.500000 1.159339
vt 0.170330 0.994505
vt 0.335165 1.159339
vt 0.170330 1.159339
vt 0.664835 0.664832
vt 0.829670 0.664833
vt 0.664835 0.829667
vt 0.829670 0.499998
vt 0.664835 0.499998
vt 0.829670 0.335164
vt 0.664835 0.335164
vt 0.829670 0.170330
vt 0.664835 0.170329
vt 0.829669 0.005495
vt 0.664834 0.005495
vt 0.829669 -0.159339
vt 0.664834 -0.159339
vt 0.499999 0.005495
vt 0.499999 -0.159339
vt 0.335164 0.005495
vt 0.335164 -0.159339
vt 0.170329 0.005495
vt 0.170329 -0.159339
vt 0.005494 0.005495
vt 0.005494 -0.159340
vt -0.159341 0.005495
vt -0.159341 -0.159340
vt 0.500000 0.829667
vt 0.500000 0.664832
vt 0.500000 0.499998
vt 0.500000 0.335164
vt 0.500000 0.170329
vt 0.335165 0.170329
vt 0.170330 0.170329
vt 0.005495 0.170329
vt -0.159340 0.170329
vt 0.500000 0.994501
vt 0.335166 0.994501
vt 0.335166 1.159335
vt 0.170331 1.159335
vt 0.170331 0.994501
vt 0.005496 1.159335
vt 0.005496 0.994501
vt -0.159339 1.159335
vt -0.159339 0.994500
vt 0.005496 0.829666
vt -0.159339 0.829666
vt 0.005495 0.664832
vt -0.159340 0.664832
vt 0.005495 0.499998
vt -0.159340 0.499998
vt 0.005495 0.335163
vt -0.159340 0.335163
vt 0.664835 0.994501
vt 0.829670 0.829667
vt 0.994505 0.664833
vt 0.994505 0.499998
vt 0.994505 0.335164
vt 0.994504 0.170330
vt 0.994504 0.005495
vt 0.994504 -0.159339
vt 0.500000 1.159335
vt 0.664835 1.159335
vt 0.829670 0.994501
vt 0.994505 0.829667
vt 1.159340 0.664833
vt 1.159339 0.499999
vt 1.159339 0.335164
vt 1.159339 0.170330
vt 1.159339 0.005495
vt 1.159339 -0.159339
vt 0.829670 1.159336
vt 0.994505 0.994501
vt 1.159340 0.829667
vt 0.994505 1.159336
vt 1.159340 0.994502
vt 1.159340 1.159336
vt 0.335165 0.499998
vt 0.170330 0.499998
vt 0.335165 0.335164
vt 0.170330 0.664832
vt 0.335165 0.664832
vt 0.170331 0.829666
vt 0.335165 0.829666
vt 0.170330 0.335163
vn 0.0000 0.0000 1.0000
vn 0.0000 0.0000 -1.0000
usemtl glass05
s 1
f 2/1/1 1/2/1 3/3/1
f 1/2/1 2/1/1 146/4/1
f 73/5/1 146/4/1 2/1/1
f 146/4/1 73/5/1 41/6/1
f 74/7/1 41/6/1 73/5/1
f 151/8/1 41/6/1 74/7/1
f 41/6/1 151/8/1 40/9/1
f 111/10/1 40/9/1 151/8/1
f 40/9/1 111/10/1 110/11/1
f 161/12/1 110/11/1 111/10/1
f 147/13/1 2/1/1 3/3/1
f 105/14/1 2/1/1 147/13/1
f 2/1/1 105/14/1 73/5/1
f 145/15/1 73/5/1 105/14/1
f 73/5/1 145/15/1 74/7/1
f 3/3/1 66/16/1 147/13/1
f 66/16/1 3/3/1 65/17/1
f 65/17/1 3/3/1 152/18/1
f 1/2/1 152/18/1 3/3/1
f 152/18/1 1/2/1 72/19/1
f 72/19/1 1/2/1 108/20/1
f 146/4/1 108/20/1 1/2/1
f 108/20/1 146/4/1 39/21/1
f 41/6/1 39/21/1 146/4/1
f 40/9/1 39/21/1 41/6/1
f 39/21/1 40/9/1 150/22/1
f 110/11/1 150/22/1 40/9/1
f 18/23/1 147/13/1 66/16/1
f 19/24/1 147/13/1 18/23/1
f 147/13/1 19/24/1 105/14/1
f 107/25/1 105/14/1 19/24/1
f 105/14/1 107/25/1 145/15/1
f 66/16/1 106/26/1 18/23/1
f 106/26/1 66/16/1 138/27/1
f 65/17/1 138/27/1 66/16/1
f 138/27/1 65/17/1 101/28/1
f 101/28/1 65/17/1 38/29/1
f 152/18/1 38/29/1 65/17/1
f 38/29/1 152/18/1 37/30/1
f 72/19/1 37/30/1 152/18/1
f 37/30/1 72/19/1 71/31/1
f 71/31/1 72/19/1 149/32/1
f 108/20/1 149/32/1 72/19/1
f 149/32/1 108/20/1 109/33/1
f 39/21/1 109/33/1 108/20/1
f 109/33/1 39/21/1 150/22/1
f 106/26/1 144/34/1 18/23/1
f 144/34/1 106/26/1 44/35/1
f 44/35/1 106/26/1 67/36/1
f 138/27/1 67/36/1 106/26/1
f 67/36/1 138/27/1 68/37/1
f 101/28/1 68/37/1 138/27/1
f 68/37/1 101/28/1 21/38/1
f 21/38/1 101/28/1 139/39/1
f 38/29/1 139/39/1 101/28/1
f 139/39/1 38/29/1 36/40/1
f 37/30/1 36/40/1 38/29/1
f 36/40/1 37/30/1 153/41/1
f 71/31/1 153/41/1 37/30/1
f 20/42/1 18/23/1 144/34/1
f 18/23/1 20/42/1 19/24/1
f 148/43/1 19/24/1 20/42/1
f 19/24/1 148/43/1 107/25/1
f 144/34/1 69/44/1 20/42/1
f 69/44/1 144/34/1 42/45/1
f 44/35/1 42/45/1 144/34/1
f 42/45/1 44/35/1 43/46/1
f 43/46/1 44/35/1 157/47/1
f 67/36/1 157/47/1 44/35/1
f 157/47/1 67/36/1 6/48/1
f 68/37/1 6/48/1 67/36/1
f 6/48/1 68/37/1 141/49/1
f 21/38/1 141/49/1 68/37/1
f 141/49/1 21/38/1 22/50/1
f 22/50/1 21/38/1 23/51/1
f 139/39/1 23/51/1 21/38/1
f 23/51/1 139/39/1 63/52/1
f 36/40/1 63/52/1 139/39/1
f 63/52/1 36/40/1 103/53/1
f 153/41/1 103/53/1 36/40/1
f 70/54/1 20/42/1 69/44/1
f 20/42/1 70/54/1 148/43/1
f 69/44/1 143/55/1 70/54/1
f 143/55/1 69/44/1 104/56/1
f 42/45/1 104/56/1 69/44/1
f 104/56/1 42/45/1 158/57/1
f 43/46/1 158/57/1 42/45/1
f 158/57/1 43/46/1 75/58/1
f 76/59/1 75/58/1 43/46/1
f 75/58/1 76/59/1 154/60/1
f 112/61/1 154/60/1 76/59/1
f 154/60/1 112/61/1 113/62/1
f 45/63/1 113/62/1 112/61/1
f 113/62/1 45/63/1 155/64/1
f 46/65/1 155/64/1 45/63/1
f 155/64/1 46/65/1 114/66/1
f 115/67/1 114/66/1 46/65/1
f 114/66/1 115/67/1 162/68/1
f 157/47/1 76/59/1 43/46/1
f 76/59/1 157/47/1 4/69/1
f 6/48/1 4/69/1 157/47/1
f 4/69/1 6/48/1 5/70/1
f 141/49/1 5/70/1 6/48/1
f 5/70/1 141/49/1 100/71/1
f 22/50/1 100/71/1 141/49/1
f 100/71/1 22/50/1 102/72/1
f 102/72/1 22/50/1 142/73/1
f 23/51/1 142/73/1 22/50/1
f 142/73/1 23/51/1 64/74/1
f 63/52/1 64/74/1 23/51/1
f 64/74/1 63/52/1 140/75/1
f 103/53/1 140/75/1 63/52/1
f 4/69/1 112/61/1 76/59/1
f 112/61/1 4/69/1 137/76/1
f 5/70/1 137/76/1 4/69/1
f 137/76/1 5/70/1 77/77/1
f 100/71/1 77/77/1 5/70/1
f 77/77/1 100/71/1 136/78/1
f 102/72/1 136/78/1 100/71/1
f 137/76/1 45/63/1 112/61/1
f 45/63/1 137/76/1 47/79/1
f 77/77/1 47/79/1 137/76/1
f 47/79/1 77/77/1 78/80/1
f 136/78/1 78/80/1 77/77/1
f 47/79/1 46/65/1 45/63/1
f 46/65/1 47/79/1 156/81/1
f 78/80/1 156/81/1 47/79/1
f 115/67/1 46/65/1 156/81/1
f 8/82/2 7/83/2 9/84/2
f 7/83/2 8/82/2 124/85/2
f 50/86/2 124/85/2 8/82/2
f 124/85/2 50/86/2 15/87/2
f 31/88/2 15/87/2 50/86/2
f 15/87/2 31/88/2 32/89/2
f 30/90/2 32/89/2 31/88/2
f 32/89/2 30/90/2 83/91/2
f 52/92/2 83/91/2 30/90/2
f 83/91/2 52/92/2 121/93/2
f 121/93/2 52/92/2 86/94/2
f 87/95/2 86/94/2 52/92/2
f 86/94/2 87/95/2 119/96/2
f 96/97/2 119/96/2 87/95/2
f 119/96/2 96/97/2 94/98/2
f 95/99/2 94/98/2 96/97/2
f 94/98/2 95/99/2 134/100/2
f 61/101/2 134/100/2 95/99/2
f 134/100/2 61/101/2 97/102/2
f 98/103/2 97/102/2 61/101/2
f 97/102/2 98/103/2 160/104/2
f 130/105/2 8/82/2 9/84/2
f 51/106/2 8/82/2 130/105/2
f 8/82/2 51/106/2 50/86/2
f 85/107/2 50/86/2 51/106/2
f 50/86/2 85/107/2 31/88/2
f 120/108/2 31/88/2 85/107/2
f 31/88/2 120/108/2 30/90/2
f 53/109/2 30/90/2 120/108/2
f 30/90/2 53/109/2 52/92/2
f 52/92/2 53/109/2 87/95/2
f 60/110/2 87/95/2 53/109/2
f 87/95/2 60/110/2 96/97/2
f 35/111/2 96/97/2 60/110/2
f 96/97/2 35/111/2 95/99/2
f 33/112/2 95/99/2 35/111/2
f 95/99/2 33/112/2 61/101/2
f 62/113/2 61/101/2 33/112/2
f 61/101/2 62/113/2 98/103/2
f 56/114/2 130/105/2 9/84/2
f 130/105/2 56/114/2 24/115/2
f 57/116/2 24/115/2 56/114/2
f 131/117/2 24/115/2 57/116/2
f 24/115/2 131/117/2 26/118/2
f 80/119/2 26/118/2 131/117/2
f 26/118/2 80/119/2 81/120/2
f 117/121/2 81/120/2 80/119/2
f 116/122/2 81/120/2 117/121/2
f 81/120/2 116/122/2 49/123/2
f 48/124/2 49/123/2 116/122/2
f 49/123/2 48/124/2 17/125/2
f 135/126/2 17/125/2 48/124/2
f 17/125/2 135/126/2 16/127/2
f 79/128/2 16/127/2 135/126/2
f 16/127/2 79/128/2 34/129/2
f 133/130/2 34/129/2 79/128/2
f 34/129/2 133/130/2 33/112/2
f 62/113/2 33/112/2 133/130/2
f 9/84/2 91/131/2 56/114/2
f 91/131/2 9/84/2 123/132/2
f 7/83/2 123/132/2 9/84/2
f 123/132/2 7/83/2 59/133/2
f 59/133/2 7/83/2 88/134/2
f 124/85/2 88/134/2 7/83/2
f 88/134/2 124/85/2 13/135/2
f 15/87/2 13/135/2 124/85/2
f 13/135/2 15/87/2 14/136/2
f 32/89/2 14/136/2 15/87/2
f 14/136/2 32/89/2 55/137/2
f 83/91/2 55/137/2 32/89/2
f 55/137/2 83/91/2 82/138/2
f 121/93/2 82/138/2 83/91/2
f 126/139/2 56/114/2 91/131/2
f 56/114/2 126/139/2 57/116/2
f 91/131/2 90/140/2 126/139/2
f 90/140/2 91/131/2 29/141/2
f 123/132/2 29/141/2 91/131/2
f 29/141/2 123/132/2 28/142/2
f 59/133/2 28/142/2 123/132/2
f 28/142/2 59/133/2 58/143/2
f 58/143/2 59/133/2 122/144/2
f 88/134/2 122/144/2 59/133/2
f 122/144/2 88/134/2 89/145/2
f 13/135/2 89/145/2 88/134/2
f 89/145/2 13/135/2 125/146/2
f 14/136/2 125/146/2 13/135/2
f 125/146/2 14/136/2 54/147/2
f 55/137/2 54/147/2 14/136/2
f 54/147/2 55/137/2 118/148/2
f 82/138/2 118/148/2 55/137/2
f 29/141/2 127/149/2 90/140/2
f 127/149/2 29/141/2 27/150/2
f 28/142/2 27/150/2 29/141/2
f 27/150/2 28/142/2 128/151/2
f 58/143/2 128/151/2 28/142/2
f 27/150/2 92/152/2 127/149/2
f 92/152/2 27/150/2 93/153/2
f 128/151/2 93/153/2 27/150/2
f 93/153/2 159/154/2 92/152/2
f 11/155/2 10/156/2 12/157/2
f 10/156/2 11/155/2 129/158/2
f 84/159/2 129/158/2 11/155/2
f 129/158/2 84/159/2 99/160/2
f 25/161/2 99/160/2 84/159/2
f 99/160/2 25/161/2 26/118/2
f 26/118/2 25/161/2 24/115/2
f 24/115/2 25/161/2 130/105/2
f 130/105/2 25/161/2 51/106/2
f 84/159/2 51/106/2 25/161/2
f 51/106/2 84/159/2 85/107/2
f 11/155/2 85/107/2 84/159/2
f 85/107/2 11/155/2 120/108/2
f 12/157/2 120/108/2 11/155/2
f 120/108/2 12/157/2 53/109/2
f 53/109/2 12/157/2 60/110/2
f 132/162/2 60/110/2 12/157/2
f 60/110/2 132/162/2 35/111/2
f 34/129/2 35/111/2 132/162/2
f 35/111/2 34/129/2 33/112/2
f 10/156/2 132/162/2 12/157/2
f 16/127/2 132/162/2 10/156/2
f 132/162/2 16/127/2 34/129/2
f 10/156/2 17/125/2 16/127/2
f 129/158/2 17/125/2 10/156/2
f 17/125/2 129/158/2 49/123/2
f 99/160/2 49/123/2 129/158/2
f 49/123/2 99/160/2 81/120/2
f 26/118/2 81/120/2 99/160/2
